<?xml version="1.0" standalone="no"?>
<!DOCTYPE svg PUBLIC "-//W3C//DTD SVG 20010904//EN"
 "http://www.w3.org/TR/2001/REC-SVG-20010904/DTD/svg10.dtd">
<svg version="1.0" xmlns="http://www.w3.org/2000/svg"
 width="406.000000pt" height="238.000000pt" viewBox="0 0 406.000000 238.000000"
 preserveAspectRatio="xMidYMid meet">

<g transform="translate(0.000000,238.000000) scale(0.100000,-0.100000)"
fill="#000000" stroke="none">
<path d="M1021 2099 c-218 -43 -438 -180 -573 -359 -64 -84 -143 -244 -170
-345 -17 -65 -21 -108 -21 -235 0 -186 17 -263 92 -415 123 -249 314 -413 581
-500 75 -25 104 -28 250 -32 152 -4 173 -2 263 21 392 101 687 450 714 848 6
86 6 86 29 76 l24 -11 0 -204 0 -203 70 0 70 0 0 75 0 75 55 0 c49 0 59 4 94
36 48 43 64 87 64 174 -1 75 -14 114 -50 152 -48 50 -114 58 -185 22 -24 -13
-31 -12 -60 6 -43 26 -54 25 -83 -4 l-24 -24 -6 36 c-37 217 -117 381 -264
535 -127 133 -286 224 -466 268 -86 20 -317 25 -404 8z m366 -55 c332 -68 593
-311 688 -640 30 -104 31 -114 5 -114 -17 0 -20 7 -20 40 0 22 -4 40 -9 40 -4
0 -21 35 -36 78 -74 213 -231 387 -438 486 -118 57 -196 76 -333 83 -238 12
-451 -68 -626 -235 -180 -172 -268 -377 -268 -622 0 -245 88 -450 268 -622
311 -297 777 -319 1123 -52 101 77 206 214 251 327 27 65 36 77 59 77 17 0 17
-3 5 -38 -82 -232 -287 -443 -515 -531 -134 -51 -216 -64 -370 -58 -159 6
-218 21 -356 86 -183 87 -329 232 -420 416 -132 267 -118 606 35 856 129 212
349 371 578 419 110 23 277 25 379 4z m-9 -70 c267 -54 499 -250 603 -509 17
-42 29 -78 27 -79 -2 -1 -21 -7 -43 -12 -37 -8 -40 -12 -43 -46 -3 -32 -7 -38
-27 -38 -18 0 -24 -6 -27 -27 -2 -21 -8 -28 -23 -26 -14 1 -21 -4 -21 -17 0
-15 5 -18 23 -14 17 5 23 2 23 -9 0 -9 12 -18 28 -21 15 -2 4 -3 -23 -2 -42 2
-51 0 -51 -14 0 -14 8 -16 48 -12 44 4 48 3 48 -18 0 -21 -4 -22 -48 -18 -40
4 -48 2 -48 -12 0 -14 8 -16 48 -12 l48 5 0 -102 0 -101 29 0 c41 0 44 -10 20
-66 -81 -186 -246 -348 -439 -431 -175 -75 -400 -84 -580 -24 -286 96 -497
332 -561 626 -17 77 -17 253 0 330 70 324 324 580 646 650 84 19 251 18 343
-1z m728 -881 c-3 -49 -12 -110 -20 -138 -14 -49 -14 -48 -15 88 -1 134 -1
137 20 137 21 0 22 -3 15 -87z m314 -3 c0 -64 -7 -80 -36 -80 -23 0 -24 3 -24
69 0 72 9 87 43 69 13 -6 17 -21 17 -58z"/>
<path d="M1100 1962 c0 -4 4 -12 9 -17 4 -6 13 -25 20 -44 9 -28 8 -41 -9 -77
-19 -44 -19 -44 1 -44 12 0 17 4 14 11 -4 5 -4 22 0 37 l7 27 9 -24 c6 -14 8
-30 5 -37 -3 -7 4 -14 16 -16 42 -6 30 -26 -19 -33 -265 -36 -465 -218 -518
-470 -28 -133 -11 -248 55 -382 95 -192 294 -316 510 -317 199 -1 370 87 486
250 42 58 67 77 76 57 2 -5 34 -24 72 -43 63 -32 86 -53 74 -66 -3 -2 -41 7
-84 21 -98 31 -103 31 -75 1 13 -14 28 -23 35 -20 15 6 98 -23 106 -36 4 -6
17 8 29 31 13 22 21 41 20 42 -2 1 -33 17 -69 35 l-65 33 3 203 c3 198 2 204
-18 209 -26 7 -26 37 0 37 18 0 20 7 20 65 0 63 1 66 33 85 17 11 44 26 60 33
30 13 31 15 17 37 -9 13 -12 13 -20 -2 -14 -22 -110 -75 -151 -83 -33 -6 -37
-4 -81 54 -102 130 -219 195 -410 226 -24 4 -38 11 -38 20 0 8 6 15 13 15 9 0
12 26 12 95 0 79 -3 95 -15 95 -13 0 -15 -12 -12 -70 3 -47 0 -75 -8 -86 -16
-18 -24 -10 -39 38 -10 30 -9 43 4 73 19 46 19 45 -1 45 -10 0 -14 -6 -10 -15
7 -19 -3 -47 -15 -39 -5 3 -9 16 -9 30 0 17 -5 24 -20 24 -11 0 -20 -4 -20 -8z
m40 -246 c0 -7 -9 -16 -20 -19 -22 -6 -29 18 -7 26 21 9 27 7 27 -7z m50 -1
c0 -8 -7 -15 -15 -15 -8 0 -15 7 -15 15 0 8 7 15 15 15 8 0 15 -7 15 -15z m70
0 c0 -8 -7 -15 -15 -15 -8 0 -15 7 -15 15 0 8 7 15 15 15 8 0 15 -7 15 -15z
m57 -9 c-2 -6 -13 -9 -23 -8 -24 5 -27 8 -20 20 8 14 48 2 43 -12z m-233 -5
c7 -11 -22 -23 -35 -15 -5 3 -9 9 -9 15 0 12 37 12 44 0z m286 -6 c0 -17 -2
-18 -24 -9 -23 9 -20 24 4 24 11 0 20 -7 20 -15z m-340 -10 c0 -8 -2 -15 -4
-15 -2 0 -11 -3 -20 -6 -10 -4 -16 -1 -16 9 0 14 13 24 33 26 4 1 7 -6 7 -14z
m389 6 c7 -5 11 -14 7 -19 -9 -15 -36 -4 -36 14 0 16 9 18 29 5z m-229 -11 c0
-5 -6 -10 -12 -10 -9 0 -8 -3 2 -10 12 -7 15 -32 15 -112 l0 -103 -174 0 -175
0 -8 -34 c-5 -19 -6 -50 -1 -70 l9 -36 81 -5 82 -5 -95 -146 -95 -146 21 -57
21 -56 164 0 c152 0 165 1 175 19 14 28 13 116 -3 129 -7 6 -45 12 -85 14
l-72 3 73 109 c72 109 72 109 77 75 3 -21 0 -38 -7 -44 -19 -15 -12 -115 9
-128 24 -15 51 9 44 39 -4 13 -2 26 4 29 14 8 13 38 -2 53 -17 17 -21 472 -4
472 6 0 5 4 -3 9 -25 16 7 22 61 12 129 -23 242 -89 320 -186 40 -50 47 -65
50 -109 3 -44 6 -51 26 -54 29 -4 31 -42 2 -42 -19 0 -20 -7 -20 -122 0 -68
-3 -160 -7 -205 -6 -79 -8 -85 -52 -140 -119 -148 -332 -222 -515 -179 -241
57 -416 274 -416 516 0 238 174 458 406 514 72 17 104 19 104 6z m-210 -20 c0
-11 -30 -21 -42 -14 -7 5 -4 12 7 20 18 13 35 10 35 -6z m500 -11 c0 -12 -27
-11 -35 1 -11 17 5 32 21 19 8 -6 14 -15 14 -20z m-550 -19 c0 -11 -30 -21
-42 -14 -7 5 -4 12 7 20 18 13 35 10 35 -6z m600 -11 c0 -12 -27 -11 -35 1
-11 17 5 32 21 19 8 -6 14 -15 14 -20z m-660 -34 c-7 -8 -16 -15 -21 -15 -13
0 -11 24 3 38 18 18 35 -3 18 -23z m699 16 c7 -5 11 -14 7 -19 -9 -15 -36 -4
-36 14 0 16 9 18 29 5z m-739 -45 c0 -20 -19 -31 -32 -18 -6 6 -7 15 -4 21 10
16 36 13 36 -3z m785 4 c11 -17 -5 -32 -21 -19 -8 6 -14 15 -14 20 0 12 27 11
35 -1z m-821 -39 c8 -12 -21 -34 -34 -26 -8 5 -8 11 1 21 13 16 25 18 33 5z
m859 -6 c8 -19 -13 -31 -24 -14 -13 20 -11 29 5 29 8 0 16 -7 19 -15z m-899
-58 c-7 -19 -20 -22 -29 -7 -9 15 16 43 27 32 5 -5 6 -16 2 -25z m934 6 c6
-19 -25 -16 -32 3 -4 11 -1 14 11 12 9 -2 18 -9 21 -15z m-958 -41 c-1 -17
-19 -34 -29 -28 -8 5 -8 13 -1 27 10 18 30 18 30 1z m-20 -46 c0 -16 -14 -36
-26 -36 -14 0 -19 22 -7 33 7 8 33 10 33 3z m-26 -55 c9 -14 -4 -41 -20 -41
-15 0 -17 10 -8 34 7 18 20 21 28 7z m1076 -17 c0 -8 -7 -14 -15 -14 -15 0
-21 21 -9 33 10 9 24 -2 24 -19z m-1090 -59 c0 -18 -4 -23 -15 -19 -16 6 -20
26 -8 37 13 14 23 6 23 -18z m0 -55 c0 -11 -7 -20 -15 -20 -8 0 -15 9 -15 20
0 11 7 20 15 20 8 0 15 -9 15 -20z m0 -60 c0 -11 -7 -20 -15 -20 -8 0 -15 9
-15 20 0 11 7 20 15 20 8 0 15 -9 15 -20z m0 -55 c0 -28 -17 -34 -27 -9 -3 9
0 20 8 25 19 12 19 12 19 -16z m14 -52 c9 -23 -12 -43 -24 -23 -5 8 -10 21
-10 28 0 18 27 15 34 -5z m20 -59 c4 -9 4 -19 2 -22 -10 -9 -36 8 -36 23 0 20
26 19 34 -1z m20 -51 c10 -25 -10 -39 -23 -15 -10 19 -6 32 10 32 4 0 10 -8
13 -17z m30 -50 c4 -9 3 -20 -2 -25 -11 -11 -36 17 -27 32 9 15 22 12 29 -7z
m932 -12 c-4 -6 -14 -11 -22 -11 -12 0 -13 4 -3 21 7 14 14 18 21 11 6 -6 7
-15 4 -21z m-897 -35 c9 -10 9 -16 1 -21 -13 -8 -42 14 -34 26 8 13 20 11 33
-5z m864 8 c9 -10 -4 -34 -19 -34 -16 0 -16 2 -8 24 6 17 16 20 27 10z m-826
-50 c9 -23 -11 -38 -26 -20 -13 16 -7 36 10 36 5 0 12 -7 16 -16z m783 -19
c-9 -11 -16 -13 -23 -6 -7 7 -6 15 3 26 9 11 16 13 23 6 7 -7 6 -15 -3 -26z
m-740 -20 c16 -19 3 -40 -16 -24 -15 13 -19 39 -5 39 5 0 14 -7 21 -15z m700
-15 c-21 -14 -30 -12 -30 4 0 18 22 27 35 14 6 -6 5 -12 -5 -18z m-651 -19
c22 -14 4 -33 -20 -21 -11 6 -17 15 -14 21 8 11 16 11 34 0z m611 0 c0 -5 -6
-14 -14 -20 -16 -13 -32 2 -21 19 8 12 35 13 35 1z m-561 -30 c22 -14 4 -33
-20 -21 -11 6 -17 15 -14 21 8 11 16 11 34 0z m511 0 c0 -5 -6 -14 -14 -20
-16 -13 -32 2 -21 19 8 12 35 13 35 1z m-466 -17 c9 -3 16 -13 16 -21 0 -20
-34 -12 -38 10 -4 19 -1 20 22 11z m406 -24 c-21 -14 -30 -12 -30 4 0 18 22
27 35 14 6 -6 5 -12 -5 -18z m-346 4 c20 -8 11 -24 -15 -24 -19 0 -25 11 -12
23 8 8 8 8 27 1z m296 -9 c0 -8 -9 -15 -20 -15 -22 0 -27 15 -7 23 21 9 27 7
27 -8z m-230 -22 c0 -10 -6 -13 -16 -9 -9 3 -18 6 -20 6 -2 0 -4 6 -4 14 0 9
7 12 20 9 11 -3 20 -12 20 -20z m60 2 c0 -8 -9 -15 -20 -15 -11 0 -20 7 -20
15 0 8 9 15 20 15 11 0 20 -7 20 -15z m60 0 c0 -8 -9 -15 -20 -15 -11 0 -20 7
-20 15 0 8 9 15 20 15 11 0 20 -7 20 -15z m60 5 c0 -5 -7 -10 -15 -10 -8 0
-18 0 -22 -1 -4 0 -9 4 -11 10 -2 6 8 11 22 11 14 0 26 -4 26 -10z"/>
<path d="M1108 1653 c6 -2 18 -2 25 0 6 3 1 5 -13 5 -14 0 -19 -2 -12 -5z"/>
<path d="M1288 1653 c7 -3 16 -2 19 1 4 3 -2 6 -13 5 -11 0 -14 -3 -6 -6z"/>
<path d="M1068 1643 c7 -3 16 -2 19 1 4 3 -2 6 -13 5 -11 0 -14 -3 -6 -6z"/>
<path d="M1391 1626 c10 -9 69 -36 69 -32 0 6 -55 36 -66 36 -4 0 -5 -2 -3 -4z"/>
<path d="M929 1579 l-24 -20 28 17 c15 9 27 18 27 20 0 8 -8 4 -31 -17z"/>
<path d="M850 1515 c-24 -25 -42 -45 -39 -45 3 0 25 20 49 45 24 25 42 45 39
45 -3 0 -25 -20 -49 -45z"/>
<path d="M793 1448 c-15 -20 -25 -38 -20 -38 3 0 12 11 21 25 17 26 16 35 -1
13z"/>
<path d="M731 1329 c-6 -18 -11 -37 -10 -43 0 -6 7 7 15 28 8 22 12 41 10 43
-2 2 -9 -10 -15 -28z"/>
<path d="M1370 1278 c-120 -61 -147 -253 -48 -345 55 -51 127 -64 215 -38 59
18 68 33 48 82 -12 27 -19 34 -32 28 -36 -15 -113 -18 -128 -5 -26 22 -17 28
55 32 59 3 74 8 96 30 14 14 29 41 33 59 28 130 -111 221 -239 157z m105 -133
c0 -15 -8 -21 -32 -23 -27 -3 -33 0 -33 16 0 26 10 33 40 30 17 -2 25 -9 25
-23z"/>
<path d="M712 1250 c0 -14 2 -19 5 -12 2 6 2 18 0 25 -3 6 -5 1 -5 -13z"/>
<path d="M703 1160 c0 -30 2 -43 4 -27 2 15 2 39 0 55 -2 15 -4 2 -4 -28z"/>
<path d="M712 1070 c0 -14 2 -19 5 -12 2 6 2 18 0 25 -3 6 -5 1 -5 -13z"/>
<path d="M721 1030 c0 -8 6 -28 14 -45 17 -39 18 -21 0 25 -7 19 -14 28 -14
20z"/>
<path d="M780 891 c5 -11 15 -23 21 -27 6 -3 3 5 -6 20 -20 30 -30 35 -15 7z"/>
<path d="M850 808 c41 -45 50 -53 50 -45 0 2 -21 23 -47 47 l-48 45 45 -47z"/>
<path d="M914 751 c7 -11 46 -35 46 -28 0 3 -12 12 -26 22 -15 9 -23 12 -20 6z"/>
<path d="M1420 710 c-19 -11 -31 -19 -27 -20 11 0 67 29 67 35 0 7 -1 7 -40
-15z"/>
<path d="M1068 673 c7 -3 16 -2 19 1 4 3 -2 6 -13 5 -11 0 -14 -3 -6 -6z"/>
<path d="M1108 663 c6 -2 18 -2 25 0 6 3 1 5 -13 5 -14 0 -19 -2 -12 -5z"/>
<path d="M1288 663 c7 -3 16 -2 19 1 4 3 -2 6 -13 5 -11 0 -14 -3 -6 -6z"/>
<path d="M1188 653 c12 -2 30 -2 40 0 9 3 -1 5 -23 4 -22 0 -30 -2 -17 -4z"/>
<path d="M1275 1875 c0 -78 3 -95 15 -95 12 0 15 17 15 95 0 78 -3 95 -15 95
-12 0 -15 -17 -15 -95z"/>
<path d="M846 1888 c-10 -6 -14 -13 -9 -17 16 -11 83 -128 83 -145 0 -14 4
-15 21 -5 13 6 17 14 11 18 -13 8 -73 110 -81 138 -5 18 -9 20 -25 11z"/>
<path d="M800 1859 c-11 -8 -12 -12 -2 -16 6 -2 12 -14 12 -26 l-1 -22 -18 23
c-12 13 -25 20 -35 16 -23 -9 -20 -16 24 -48 22 -17 40 -35 40 -42 0 -6 9 -14
20 -17 11 -3 23 -15 28 -26 7 -19 10 -20 27 -7 21 15 20 17 -54 72 -8 6 -17
32 -20 57 -5 39 -8 45 -21 36z"/>
<path d="M1590 1855 c0 -18 -58 -116 -79 -133 -14 -11 -14 -14 -1 -22 22 -14
23 -14 54 50 16 33 38 69 49 81 16 17 17 23 6 30 -20 13 -29 11 -29 -6z"/>
<path d="M831 1693 c-1 -33 11 -43 25 -22 3 6 2 14 -3 18 -6 3 -13 13 -16 21
-3 8 -6 0 -6 -17z"/>
<path d="M521 1592 c-10 -18 -9 -22 2 -22 8 0 20 -7 27 -15 10 -12 9 -15 -7
-15 -10 0 -24 5 -30 11 -8 8 -14 5 -22 -10 -10 -19 -9 -21 12 -21 59 0 89 -13
117 -51 26 -37 40 -41 40 -12 0 8 -4 12 -9 9 -4 -3 -16 3 -26 14 -18 19 -17
20 5 20 12 0 28 -7 34 -16 11 -14 13 -13 23 9 11 24 11 25 -47 31 -59 7 -86
27 -102 76 -4 11 -7 10 -17 -8z"/>
<path d="M1870 1600 c0 -11 -116 -80 -136 -80 -16 0 -18 -9 -5 -29 7 -11 12
-10 29 5 16 14 108 67 140 80 1 1 0 9 -4 18 -7 17 -24 22 -24 6z"/>
<path d="M397 1233 c-16 -15 -7 -34 13 -28 11 3 27 2 36 -3 15 -9 15 -10 -4
-16 -12 -4 -26 -5 -31 -2 -8 5 -24 -34 -17 -41 1 -2 25 6 53 18 52 21 59 20
136 -19 4 -2 7 6 7 18 0 17 -4 20 -20 15 -11 -3 -27 -2 -37 4 -16 8 -15 10 9
16 15 4 32 4 37 0 7 -4 11 4 11 19 0 27 -9 33 -26 17 -5 -5 -26 -14 -47 -21
-30 -9 -45 -9 -70 1 -18 7 -35 17 -38 21 -3 5 -8 5 -12 1z"/>
<path d="M390 1110 c0 -12 15 -14 85 -11 58 2 90 -1 100 -9 13 -10 15 -9 15
11 0 24 -1 24 -100 24 -82 0 -100 -3 -100 -15z"/>
<path d="M607 926 c-6 -15 -115 -79 -134 -79 -15 0 -16 -16 -3 -37 6 -9 10
-10 10 -3 0 16 137 96 150 88 6 -3 10 -12 10 -18 0 -14 -134 -89 -144 -80 -11
12 -6 -18 9 -46 l14 -28 45 21 c48 22 56 33 12 16 -34 -12 -66 -13 -66 -1 0
13 140 92 151 85 15 -9 10 5 -17 52 -29 49 -30 50 -37 30z"/>
<path d="M645 785 c-16 -7 -26 -14 -21 -14 6 -1 -5 -17 -24 -36 -19 -20 -40
-33 -47 -31 -14 6 -17 -12 -5 -31 5 -8 31 9 82 57 73 68 77 84 15 55z"/>
<path d="M1825 732 c42 -45 55 -51 55 -26 0 8 -4 13 -8 10 -5 -3 -26 9 -48 26
l-39 31 40 -41z"/>
<path d="M805 661 c6 -10 -45 -101 -77 -137 -17 -19 -18 -22 -3 -28 22 -8 25
-8 25 3 0 13 72 134 85 144 6 4 5 10 -5 17 -19 12 -33 13 -25 1z"/>
<path d="M860 631 c0 -14 -71 -135 -84 -143 -12 -8 -12 -7 26 -31 33 -20 38
-21 38 -4 1 6 16 30 35 52 l35 40 -14 -49 c-8 -27 -21 -53 -28 -58 -10 -6 -9
-12 7 -24 18 -14 20 -13 23 3 2 10 15 53 29 96 14 43 23 80 20 83 -2 3 -28
-24 -57 -60 -52 -64 -75 -82 -84 -68 -7 11 63 132 80 139 11 4 12 9 3 19 -13
16 -29 18 -29 5z"/>
<path d="M1520 595 c5 -14 28 -43 50 -64 22 -21 40 -45 40 -54 0 -19 8 -21 29
-8 11 7 0 25 -50 80 -68 76 -84 86 -69 46z"/>
<path d="M1145 445 c0 -78 3 -95 15 -95 12 0 15 17 15 95 0 78 -3 95 -15 95
-12 0 -15 -17 -15 -95z"/>
<path d="M1227 518 c-10 -34 -8 -70 2 -64 10 7 25 -79 16 -94 -4 -6 5 -10 20
-10 21 0 24 3 17 18 -5 9 -15 47 -21 83 -15 79 -26 100 -34 67z"/>
<path d="M1564 465 c2 -16 5 -32 5 -34 1 -3 6 0 12 6 8 8 7 17 -5 35 l-17 23
5 -30z"/>
<path d="M1212 420 c0 -14 2 -19 5 -12 2 6 2 18 0 25 -3 6 -5 1 -5 -13z"/>
<path d="M1197 375 c-8 -20 -4 -29 11 -24 5 2 6 13 2 23 -6 19 -7 19 -13 1z"/>
<path d="M2627 1444 c-4 -4 -7 -131 -7 -281 l0 -274 73 3 72 3 0 275 0 275
-65 3 c-36 2 -69 0 -73 -4z"/>
<path d="M2924 1291 c-45 -11 -54 -19 -54 -47 0 -53 14 -63 80 -57 56 5 60 4
60 -16 0 -19 -6 -21 -52 -21 -95 0 -158 -66 -143 -149 19 -100 118 -148 209
-102 37 19 38 19 71 0 48 -29 76 -22 98 24 23 45 13 90 -21 95 -21 3 -22 9
-22 88 0 96 -15 144 -54 169 -29 19 -126 28 -172 16z m86 -256 c0 -28 -4 -35
-19 -35 -10 0 -24 6 -30 14 -17 20 3 56 29 56 16 0 20 -7 20 -35z"/>
<path d="M3264 1293 c-43 -31 -46 -133 -3 -133 18 0 19 -9 19 -135 l0 -135 70
0 70 0 0 130 c0 121 1 130 21 141 37 19 44 -2 47 -141 l4 -130 64 0 64 0 0
155 c0 184 -9 217 -67 241 -43 18 -106 13 -154 -12 -28 -14 -32 -14 -48 0 -21
19 -72 30 -87 19z"/>
</g>
</svg>
